<svg width="107" height="210" viewBox="0 0 107 210" fill="none" xmlns="http://www.w3.org/2000/svg">
<line x1="27" y1="-1" x2="27" y2="24" stroke="#FF0000" stroke-width="2" stroke-linecap="round"/>
<line x1="27" y1="40" x2="27" y2="65" stroke="#FF0000" stroke-width="2" stroke-linecap="round"/>
<line x1="27.3701" y1="24.6495" x2="52.6495" y2="39.6299" stroke="#FF0000" stroke-width="2" stroke-linecap="round"/>
<line x1="27.3701" y1="65.6495" x2="52.6495" y2="80.6299" stroke="#FF0000" stroke-width="2" stroke-linecap="round"/>
<line x1="53.3701" y1="24.6495" x2="78.6495" y2="39.6299" stroke="#FF0000" stroke-width="2" stroke-linecap="round"/>
<line x1="53.3701" y1="65.6495" x2="78.6495" y2="80.6299" stroke="#FF0000" stroke-width="2" stroke-linecap="round"/>
<line x1="79" y1="-1" x2="79" y2="24" stroke="#FF0000" stroke-width="2" stroke-linecap="round"/>
<line x1="78.3675" y1="24.2649" x2="62.2649" y2="29.6325" stroke="#FF0000" stroke-width="2" stroke-linecap="round"/>
<line x1="78.3898" y1="65.2758" x2="63.2758" y2="70.6102" stroke="#FF0000" stroke-width="2" stroke-linecap="round"/>
<line x1="41.4847" y1="33.317" x2="27.317" y2="39.5153" stroke="#FF0000" stroke-width="2" stroke-linecap="round"/>
<line x1="41.4847" y1="74.317" x2="27.317" y2="80.5153" stroke="#FF0000" stroke-width="2" stroke-linecap="round"/>
<line x1="53" y1="-1" x2="53" y2="24" stroke="#FF0000" stroke-width="2" stroke-linecap="round"/>
<line x1="53" y1="40" x2="53" y2="65" stroke="#FF0000" stroke-width="2" stroke-linecap="round"/>
<line x1="79" y1="40" x2="79" y2="65" stroke="#FF0000" stroke-width="2" stroke-linecap="round"/>
<line x1="27" y1="122" x2="27" y2="147" stroke="#FF0000" stroke-width="2" stroke-linecap="round"/>
<line x1="27" y1="163" x2="27" y2="188" stroke="#FF0000" stroke-width="2" stroke-linecap="round"/>
<line x1="27.3481" y1="147.573" x2="52.5726" y2="160.652" stroke="#FF0000" stroke-width="2" stroke-linecap="round"/>
<line x1="53.3701" y1="147.65" x2="78.6495" y2="162.63" stroke="#FF0000" stroke-width="2" stroke-linecap="round"/>
<line x1="79" y1="122" x2="79" y2="147" stroke="#FF0000" stroke-width="2" stroke-linecap="round"/>
<line x1="78.4847" y1="147.317" x2="64.317" y2="153.515" stroke="#FF0000" stroke-width="2" stroke-linecap="round"/>
<line x1="43.4304" y1="156.294" x2="27.2945" y2="162.57" stroke="#FF0000" stroke-width="2" stroke-linecap="round"/>
<line x1="53" y1="122" x2="53" y2="147" stroke="#FF0000" stroke-width="2" stroke-linecap="round"/>
<line x1="53" y1="161" x2="53" y2="202" stroke="#FF0000" stroke-width="2" stroke-linecap="round"/>
<line x1="79" y1="163" x2="79" y2="188" stroke="#FF0000" stroke-width="2" stroke-linecap="round"/>
<line x1="27" y1="81" x2="27" y2="106" stroke="#FF0000" stroke-width="2" stroke-linecap="round"/>
<line x1="27" y1="124" x2="27" y2="147" stroke="#FF0000" stroke-width="2" stroke-linecap="round"/>
<line x1="27.3701" y1="106.65" x2="52.6495" y2="121.63" stroke="#FF0000" stroke-width="2" stroke-linecap="round"/>
<line x1="53.3701" y1="106.65" x2="78.6495" y2="121.63" stroke="#FF0000" stroke-width="2" stroke-linecap="round"/>
<line x1="79" y1="81" x2="79" y2="106" stroke="#FF0000" stroke-width="2" stroke-linecap="round"/>
<line x1="78.2874" y1="106.222" x2="61.2216" y2="110.713" stroke="#FF0000" stroke-width="2" stroke-linecap="round"/>
<line x1="41.4847" y1="115.317" x2="27.317" y2="121.515" stroke="#FF0000" stroke-width="2" stroke-linecap="round"/>
<line x1="53" y1="81" x2="53" y2="106" stroke="#FF0000" stroke-width="2" stroke-linecap="round"/>
<line x1="52.9992" y1="122.001" x2="52.9799" y2="147.001" stroke="#FF0000" stroke-width="2" stroke-linecap="round"/>
<line x1="79" y1="124" x2="79" y2="147" stroke="#FF0000" stroke-width="2" stroke-linecap="round"/>
<line x1="27.3481" y1="188.573" x2="52.5726" y2="201.652" stroke="#FF0000" stroke-width="2" stroke-linecap="round"/>
<line x1="53.4274" y1="201.652" x2="78.6519" y2="188.573" stroke="#FF0000" stroke-width="2" stroke-linecap="round"/>
</svg>
